<?xml version="1.0" standalone="no"?>
<!DOCTYPE svg PUBLIC "-//W3C//DTD SVG 20010904//EN"
 "http://www.w3.org/TR/2001/REC-SVG-20010904/DTD/svg10.dtd">
<svg version="1.0" xmlns="http://www.w3.org/2000/svg"
 width="1024.000000pt" height="1024.000000pt" viewBox="0 0 1024.000000 1024.000000"
 preserveAspectRatio="xMidYMid meet">

<g transform="translate(0.000000,1024.000000) scale(0.100000,-0.100000)"
fill="#f0c908d4" stroke="none">
<path d="M2450 8748 c-34 -79 -43 -159 -37 -336 10 -299 90 -536 254 -761 37
-51 72 -99 77 -106 6 -9 -3 -28 -31 -61 -115 -138 -237 -394 -292 -612 -84
-331 -62 -729 58 -1037 l28 -72 -23 -91 c-48 -197 -59 -309 -59 -602 1 -236 4
-294 23 -409 99 -597 378 -1126 799 -1514 128 -119 306 -254 438 -333 151 -92
175 -111 175 -139 l0 -25 -956 -2 -956 -3 -29 -33 c-42 -46 -40 -93 5 -138
l34 -34 224 -1 c122 -1 536 -2 918 -3 l694 -1 3 -60 c3 -79 8 -98 38 -134 53
-63 157 -66 220 -7 34 33 35 33 52 13 25 -28 92 -57 131 -57 74 0 130 47 152
129 l12 44 86 -85 c331 -322 684 -540 1122 -693 249 -86 623 -165 785 -166 74
0 82 2 102 26 13 15 23 39 23 57 0 18 -20 133 -45 257 -102 521 -125 640 -125
660 l0 21 1073 0 c956 0 1075 2 1095 16 25 17 52 64 52 89 0 31 -31 82 -56 94
-17 8 -155 11 -454 11 -237 0 -430 2 -430 5 0 5 44 65 209 290 49 66 142 182
208 258 201 236 209 253 149 313 -29 29 -41 34 -80 34 -42 0 -50 -5 -112 -62
-89 -83 -223 -246 -426 -514 -92 -121 -188 -244 -213 -272 l-47 -52 -240 0
-240 0 5 23 c4 12 33 144 66 292 212 955 274 1319 301 1767 19 323 -27 816
-96 1010 -20 56 -18 72 15 168 17 47 42 144 57 215 24 115 27 153 28 325 0
148 -4 217 -17 285 -62 314 -163 548 -334 774 l-33 43 41 47 c49 55 136 186
171 256 123 244 176 579 128 802 -16 74 -40 133 -55 133 -7 0 -44 -37 -81 -82
-130 -155 -338 -317 -533 -413 -108 -53 -255 -105 -299 -105 -17 0 -99 30
-184 66 -452 195 -810 274 -1240 274 -431 0 -738 -71 -1215 -280 -94 -41 -149
-60 -177 -60 -59 0 -218 58 -332 121 -185 101 -402 278 -541 442 -18 20 -35
37 -38 37 -3 0 -14 -19 -25 -42z m274 -496 c104 -77 180 -124 284 -176 233
-117 412 -136 582 -62 469 206 693 265 1072 286 395 21 739 -42 1153 -213 297
-122 258 -111 385 -111 103 0 125 3 206 31 180 62 339 149 478 261 l69 55 -7
-50 c-6 -49 -46 -176 -81 -258 -9 -22 -46 -83 -81 -136 -132 -200 -348 -357
-609 -443 -44 -14 -168 -44 -275 -65 -377 -76 -576 -176 -753 -378 -98 -113
-174 -271 -267 -555 -41 -125 -78 -228 -81 -228 -8 0 -4 -8 -103 252 -150 393
-254 548 -468 701 -140 99 -291 152 -678 236 -238 53 -401 127 -562 258 -159
129 -300 355 -343 550 -9 37 -18 78 -20 91 -3 12 -3 22 1 22 3 0 47 -30 98
-68z m3993 -913 c111 -158 204 -378 249 -589 98 -456 -29 -915 -340 -1224
-147 -146 -332 -253 -556 -319 -64 -18 -129 -40 -145 -48 -41 -19 -90 -120
-116 -239 -30 -139 -37 -446 -15 -635 58 -484 252 -959 631 -1551 l52 -81
-368 0 -369 0 0 56 c0 71 -28 134 -69 155 -42 22 -123 20 -171 -4 -21 -11 -41
-24 -45 -30 -4 -6 -19 0 -39 15 -39 30 -116 46 -158 34 -78 -22 -111 -71 -112
-166 l-1 -63 -382 0 -383 0 0 57 c0 72 -29 134 -74 158 -43 23 -131 17 -172
-12 l-30 -21 -95 96 c-257 262 -480 621 -611 987 -107 298 -158 590 -166 949
-4 230 -4 239 14 232 74 -29 278 -32 352 -6 64 24 48 36 -151 116 -264 107
-437 233 -580 423 -180 239 -261 491 -261 821 -1 246 39 430 140 640 53 111
177 310 193 310 4 0 43 -20 87 -45 92 -53 227 -107 324 -131 l69 -16 -77 -51
c-185 -120 -325 -311 -378 -512 -28 -109 -24 -275 10 -388 56 -187 151 -322
307 -438 292 -216 672 -210 969 17 115 87 219 225 271 359 l28 70 16 -40 c9
-22 30 -72 47 -112 l30 -72 -20 -28 c-65 -92 -98 -209 -87 -302 21 -175 195
-501 267 -501 46 0 197 256 237 400 38 135 26 232 -47 376 -21 41 -28 65 -21
75 5 8 23 57 40 109 29 86 33 92 42 70 119 -293 280 -455 537 -541 332 -111
740 27 923 313 163 256 182 514 57 775 -21 46 -55 104 -75 130 -62 83 -167
183 -247 236 l-76 51 123 41 c127 43 266 109 320 151 16 13 35 22 40 21 6 -2
33 -37 62 -78z m-2862 -284 c295 -62 520 -347 502 -635 -10 -150 -72 -285
-182 -395 -113 -113 -247 -174 -401 -181 -279 -12 -544 191 -609 468 -57 244
37 499 239 643 142 101 290 134 451 100z m2091 4 c132 -24 288 -122 373 -234
117 -155 160 -346 115 -519 -50 -195 -216 -371 -412 -435 -81 -28 -219 -37
-297 -21 -79 16 -207 76 -272 128 -166 133 -253 369 -213 583 30 162 143 327
285 417 116 74 283 106 421 81z m1018 -1705 c52 -472 15 -982 -116 -1579 -21
-99 -43 -205 -49 -235 -8 -43 -107 -499 -147 -679 l-7 -35 -82 125 c-266 408
-443 815 -514 1183 -43 221 -54 552 -24 720 18 103 28 124 58 130 253 52 417
129 613 287 77 63 234 225 234 243 0 6 5 4 10 -5 5 -8 16 -78 24 -155z m-4149
-9 c40 -38 97 -88 128 -110 l56 -40 1 -240 c1 -621 119 -1085 400 -1570 29
-49 68 -112 88 -140 l37 -50 -50 41 c-72 60 -262 257 -326 339 -262 334 -428
728 -485 1150 -28 208 -21 641 12 749 5 15 10 13 37 -20 16 -22 62 -70 102
-109z m2323 -2914 c8 -1 12 -23 12 -75 0 -66 3 -78 26 -106 64 -76 165 -81
236 -13 l28 27 22 -21 c61 -56 125 -66 195 -32 55 27 75 64 82 154 l6 70 186
3 186 2 32 -157 c98 -485 127 -634 121 -638 -4 -2 -81 11 -171 30 -450 95
-795 239 -1089 453 -90 67 -237 192 -303 259 l-48 50 233 -2 c128 -2 239 -3
246 -4z"/>
<path d="M3628 6797 c-128 -54 -201 -150 -223 -294 -12 -75 22 -189 78 -265
59 -79 193 -134 309 -126 131 10 234 82 296 208 23 47 27 68 27 140 0 72 -4
94 -28 146 -34 73 -102 142 -177 181 -79 40 -200 44 -282 10z"/>
<path d="M5714 6802 c-201 -71 -292 -300 -196 -494 59 -120 164 -188 305 -196
68 -4 87 -1 147 22 154 61 248 222 220 377 -23 127 -103 230 -217 281 -67 30
-190 35 -259 10z"/>
</g>
</svg>
